<?xml version="1.0" encoding="utf-8"?>
<!-- Generator: Adobe Illustrator 23.1.0, SVG Export Plug-In . SVG Version: 6.00 Build 0)  -->
<svg version="1.1" id="symbol" xmlns="http://www.w3.org/2000/svg" xmlns:xlink="http://www.w3.org/1999/xlink" x="0px" y="0px"
	 viewBox="0 0 417 113" style="enable-background:new 0 0 417 113;" xml:space="preserve">
<style type="text/css">
	.st0{fill:#04FF88;}
</style>
<g id="vivid_green">
	<g>
		<path class="st0" d="M140.2,92.7c-3.1,0-6.1-0.4-9.1-1.2s-5.6-1.9-8.1-3.4c-2.4-1.5-4.6-3.3-6.4-5.4l10-7.4
			c1.5,1.5,3.2,2.6,5.1,3.4c2.4,1,5.1,1.6,8,1.6c2.4,0,4.2-0.4,5.5-1.1c1.3-0.7,1.9-1.7,1.9-2.9c0-1.5-0.7-2.6-2-3.4
			c-1.3-0.8-3-1.5-5.1-2.1c-2-0.6-4.2-1.2-6.5-1.9c-2.3-0.7-4.5-1.6-6.5-2.7c-2-1.1-3.7-2.8-5.1-4.8c-1.3-2.1-2-4.8-2-8
			s0.9-6.4,2.6-9c1.7-2.6,4.1-4.5,7.2-5.9c3.1-1.4,6.8-2.1,11-2.1c4.4,0,8.5,0.8,12.1,2.3c3.6,1.5,6.6,3.8,9,7L151.8,53
			c-1.3-1.2-2.7-2.2-4.2-2.9c-2-0.9-4.2-1.4-6.5-1.4s-3.9,0.3-5,1s-1.7,1.6-1.7,2.8c0,1.3,0.6,2.4,1.9,3.1c1.3,0.7,2.9,1.4,5,1.9
			c2.1,0.6,4.2,1.2,6.5,1.9c2.3,0.7,4.4,1.7,6.5,2.9c2,1.3,3.7,2.9,5,5c1.3,2.1,2,4.8,2,8c0,5.3-1.9,9.4-5.7,12.5
			C151.8,91.1,146.6,92.7,140.2,92.7"/>
		<path class="st0" d="M218.8,49.5c-2.2-4.1-5.3-7.3-9.4-9.6c-4-2.3-8.5-3.4-13.6-3.4c-5.4,0-10.2,1.2-14.5,3.7
			c-4.3,2.4-7.7,5.8-10.2,10c-2.5,4.2-3.7,9-3.7,14.4s1.3,10.2,3.8,14.5s6,7.6,10.4,10s9.5,3.7,15.1,3.7c4.4,0,8.4-0.8,12.1-2.3
			c3.7-1.6,6.9-3.9,9.7-7l-10-7.4c-1.3,1.3-2.9,2.2-4.5,2.9c-2.2,0.9-4.7,1.3-7.5,1.3c-3,0-5.7-0.6-8-1.9s-4.1-3.1-5.3-5.5
			c-0.5-1-0.9-2-1.2-3.1l39.3-0.1c0.3-1.2,0.5-2.3,0.5-3.3c0.1-1,0.1-2,0.1-2.9C222.1,58.2,221,53.6,218.8,49.5L218.8,49.5z
			 M188.2,50.6c2.1-1.3,4.7-1.9,7.6-1.9c2.7,0,5,0.6,6.9,1.7c1.9,1.1,3.3,2.8,4.3,4.9c0.5,1,0.9,2.2,1.2,3.5l-26,0.1
			c0.3-1,0.6-1.9,1-2.8C184.4,53.6,186,51.8,188.2,50.6L188.2,50.6z"/>
		<path class="st0" d="M279.6,47.2c-1.8-3.2-4.2-5.7-7.3-7.7c-3.1-2-6.7-3-10.7-3c-3,0-5.8,0.5-8.4,1.5c-0.9,0.3-1.8,0.8-2.6,1.2
			c-1.8,1-3,1.6-4.6,2.9V38h-14.7v53.2h14.7V60.7c0-2.1,0.5-4,1.4-5.6c0.9-1.7,2.2-3,3.9-3.9c1.6-0.9,3.5-1.3,5.6-1.3
			c3.1,0,5.7,1,7.7,3s3,4.6,3,7.8v30.5h14.8V57.3C282.3,53.7,281.4,50.4,279.6,47.2L279.6,47.2z"/>
		<path class="st0" d="M391.8,42.5v26.2c0,3.3-0.9,5.9-2.6,7.8c-1.7,1.9-4.1,2.8-7.1,2.8c-2,0-3.8-0.4-5.2-1.2
			c-1.5-0.8-2.6-2-3.3-3.6c-0.7-1.6-1.1-3.5-1.1-5.7V42.5h-14.7V69c0,4.7,1,8.8,3.1,12.4c2.1,3.6,5,6.3,8.7,8.3
			c3.7,2,7.9,2.9,12.6,2.9s8.9-1,12.5-2.9c3.7-2,6.5-4.7,8.6-8.3c2.1-3.6,3.1-7.7,3.1-12.4V42.5L391.8,42.5L391.8,42.5z"/>
		<path class="st0" d="M331.7,18v24.4c-1.4-1.3-3-2.4-4.8-3.4c-3.1-1.6-6.6-2.4-10.5-2.4c-5,0-9.4,1.2-13.3,3.7
			c-3.9,2.4-7,5.8-9.3,10c-2.3,4.2-3.5,9-3.5,14.4s1.1,10,3.5,14.3c2.3,4.2,5.4,7.6,9.3,10s8.3,3.7,13.3,3.7c3.9,0,7.5-0.8,10.6-2.4
			c1.8-0.9,3.4-2.1,4.8-3.4v5.8h14.7V7L331.7,18L331.7,18z M331,72.1c-1.1,2.2-2.8,3.9-4.8,5.1c-2.1,1.3-4.5,1.9-7.1,1.9
			s-4.9-0.6-7-1.8c-2.1-1.2-3.7-2.9-4.8-5.1c-1.1-2.2-1.7-4.7-1.7-7.6s0.6-5.3,1.7-7.5c1.1-2.2,2.8-3.9,4.8-5.1
			c2-1.2,4.4-1.8,7.2-1.8s5,0.6,7.1,1.9c2,1.3,3.6,3,4.8,5.1s1.7,4.7,1.7,7.6S332.1,70,331,72.1L331,72.1z"/>
	</g>
	<g>
		<path class="st0" d="M49.3,91.6c-18.6,0-33.7-15.1-33.7-33.7s15.1-33.7,33.7-33.7V91.6L49.3,91.6z"/>
		<path class="st0" d="M59.4,36C78,36,93.1,51.1,93.1,69.7S78,103.4,59.4,103.4V36L59.4,36z"/>
		<polygon class="st0" points="102.6,24.2 59.4,56.1 59.4,24.2 		"/>
		<polygon class="st0" points="6.2,103.4 49.3,71.5 49.3,103.4 		"/>
	</g>
</g>
</svg>
